# xmcd
#
# Track frame offsets:
# 150
# 20192
# 39975
# 56697
# 70620
# 89892
# 106852
# 122220
# 139500
# 155147
# 169497
# 187340
#
# Disc length: 2784 seconds
#
#
# Revision: 0
# Processed by: cddbd v1.5.2PL0 Copyright (c) Steve Scherf et al.
# Submitted via: Nero 7, 11, 10, 0 
#
DISCID=b40ade0c
DTITLE=Paul Foisy - Big Sugar
DYEAR=1998
DGENRE=Blues
TTITLE0=Big Sugar
TTITLE1=Born To Rock
TTITLE2=Until The World Stops Turning
TTITLE3=Sugar Buzz
TTITLE4=At The Top Of The World
TTITLE5=Glamour Girl
TTITLE6=You Came To Rescue Me
TTITLE7=Get Your Hat
TTITLE8=Things I Used To Do
TTITLE9=Trailer Park Palace
TTITLE10=Stealing Flowers
TTITLE11=Don Diegos Last Ride
EXTD=
EXTT0=Big Sugar
EXTT1=Born To Rock
EXTT2=Until The World Stops Turning
EXTT3=Sugar Buzz
EXTT4=At The Top Of The World
EXTT5=Glamour Girl
EXTT6=You Came To Rescue Me
EXTT7=Get Your Hat
EXTT8=Things I Used To Do
EXTT9=Trailer Park Palace
EXTT10=Stealing Flowers
EXTT11=Don Diegos Last Ride
PLAYORDER=
